HIERARCHY
ROOT Hips
{
 OFFSET 0.000000 0.000000 0.000000
 CHANNELS 6 Xposition Yposition Zposition Yrotation Xrotation Zrotation
 JOINT Chest
 {
  OFFSET 0.000000 9.585900 0.002600
  CHANNELS 3 Yrotation Xrotation Zrotation
  JOINT Chest2
  {
   OFFSET 0.000000 9.601200 -0.005300
   CHANNELS 3 Yrotation Xrotation Zrotation
   JOINT Chest3
   {
    OFFSET 0.000000 9.561800 0.000000
    CHANNELS 3 Yrotation Xrotation Zrotation
    JOINT Chest4
    {
     OFFSET 0.000000 9.552100 0.000000
     CHANNELS 3 Yrotation Xrotation Zrotation
     JOINT Neck
     {
      OFFSET 0.000000 14.453000 0.000000
      CHANNELS 3 Yrotation Xrotation Zrotation
      JOINT Head
      {
       OFFSET 0.000000 8.936500 -0.011300
       CHANNELS 3 Yrotation Xrotation Zrotation
       End Site
       {
        OFFSET 0.000000 17.073600 -0.006000
       }
      }
     }
     JOINT RightCollar
     {
      OFFSET -2.921100 9.558500 0.000000
      CHANNELS 3 Yrotation Xrotation Zrotation
      JOINT RightShoulder
      {
       OFFSET -13.519700 0.000000 0.000000
       CHANNELS 3 Yrotation Xrotation Zrotation
       JOINT RightElbow
       {
        OFFSET 0.000000 -29.696600 0.000000
        CHANNELS 3 Yrotation Xrotation Zrotation
        JOINT RightWrist
        {
         OFFSET 0.000000 -24.004700 0.000000
         CHANNELS 3 Yrotation Xrotation Zrotation
         End Site
         {
          OFFSET 0.000000 -17.728500 0.000000
         }
        }
       }
      }
     }
     JOINT LeftCollar
     {
      OFFSET 2.921100 9.558500 0.000000
      CHANNELS 3 Yrotation Xrotation Zrotation
      JOINT LeftShoulder
      {
       OFFSET 13.519700 0.000000 0.000000
       CHANNELS 3 Yrotation Xrotation Zrotation
       JOINT LeftElbow
       {
        OFFSET 0.000000 -29.696600 0.000000
        CHANNELS 3 Yrotation Xrotation Zrotation
        JOINT LeftWrist
        {
         OFFSET 0.000000 -24.004700 0.000000
         CHANNELS 3 Yrotation Xrotation Zrotation
         End Site
         {
          OFFSET 0.000000 -17.728500 0.000000
         }
        }
       }
      }
     }
    }
   }
  }
 }
 JOINT RightHip
 {
  OFFSET -7.771700 -0.012900 -0.001300
  CHANNELS 3 Yrotation Xrotation Zrotation
  JOINT RightKnee
  {
   OFFSET 0.000000 -40.869800 0.001200
   CHANNELS 3 Yrotation Xrotation Zrotation
   JOINT RightAnkle
   {
    OFFSET 0.000000 -39.717900 0.002100
    CHANNELS 3 Yrotation Xrotation Zrotation
    JOINT RightToe
    {
     OFFSET 0.000000 -4.965400 11.033500
     CHANNELS 3 Yrotation Xrotation Zrotation
     End Site
     {
      OFFSET 0.000000 -1.423100 5.872300
     }
    }
   }
  }
 }
 JOINT LeftHip
 {
  OFFSET 7.771700 -0.012900 -0.001300
  CHANNELS 3 Yrotation Xrotation Zrotation
  JOINT LeftKnee
  {
   OFFSET 0.000000 -40.869800 0.001200
   CHANNELS 3 Yrotation Xrotation Zrotation
   JOINT LeftAnkle
   {
    OFFSET 0.000000 -39.717900 0.002100
    CHANNELS 3 Yrotation Xrotation Zrotation
    JOINT LeftToe
    {
     OFFSET 0.000000 -4.965400 11.033500
     CHANNELS 3 Yrotation Xrotation Zrotation
     End Site
     {
      OFFSET 0.000000 -1.423100 5.872300
     }
    }
   }
  }
 }
}
MOTION
Frames: 16
Frame Time: 0.008333
0.000000 85.388000 0.000000 0.000000 -5.767877 0.000000 0.000000 11.653817 0.000000 0.000000 -5.885947 0.000000 0.000000 -0.000000 0.000000 0.000000 -0.000000 0.000000 0.000000 12.528835 0.000000 0.000000 0.711642 0.000000 0.000000 -0.000000 0.000000 0.000000 0.000000 -90.000000 0.000000 -2.309062 0.000000 0.000000 2.309062 0.000000 0.000000 -0.000000 0.000000 0.000000 -0.000000 90.000000 0.000000 -2.309062 0.000000 0.000000 2.309062 0.000000 0.000000 8.520406 0.000000 0.000000 1.905762 0.000000 -0.000000 -4.658285 0.000000 0.000000 -0.000000 0.000000 0.000000 8.520406 0.000000 0.000000 1.905762 0.000000 -0.000000 -4.658285 0.000000 0.000000 -0.000000 0.000000
-248.952663 60.670725 -80.238756 156.447268 -11.199393 3.992585 3.890376 8.321840 1.276502 0.180789 0.461595 0.068333 0.361430 0.782377 0.161762 3.273831 7.803598 1.452678 2.331577 16.256580 1.534951 2.099385 -8.639722 1.082376 8.844348 -0.735052 -3.058588 24.740376 -19.066102 -22.678718 -46.765155 -54.263393 92.752886 -2.117561 1.150361 6.923961 -5.967404 -2.348917 -5.251073 4.941903 -5.667677 8.429008 35.734198 -55.695706 -89.762258 -6.186787 -4.484278 -15.156888 -3.449878 -57.417424 8.239163 -26.849105 71.914465 -24.070382 0.813666 -6.233229 -4.509818 0.114408 -0.394546 0.271972 18.393509 -56.087249 -4.950317 27.449594 67.424423 26.859684 -15.048572 -17.359928 0.196615 0.205738 0.450012 -0.026621
-248.951945 60.671105 -80.252075 156.433390 -11.228252 4.003811 3.857307 8.363390 1.227997 0.187287 0.460360 0.072416 0.366026 0.788883 0.163531 3.244097 7.819854 1.411982 2.460157 16.134961 1.492253 2.244051 -8.766979 1.008443 8.881159 -0.825942 -3.056645 24.756129 -18.929874 -22.810211 -46.582888 -53.779010 92.574778 -1.723893 0.876275 6.616538 -5.918614 -2.496829 -5.136801 4.745263 -5.566665 8.425778 36.184372 -56.028809 -90.573384 -6.332196 -4.525451 -15.125477 -3.312998 -57.404251 8.173312 -26.919431 71.932836 -24.137049 0.768148 -6.267031 -4.538443 0.109449 -0.378687 0.330737 18.364269 -56.055524 -4.921106 27.454980 67.437893 26.883891 -15.166693 -17.349352 0.199468 0.197261 0.443517 -0.016278
-248.956369 60.671867 -80.267641 156.426208 -11.255012 4.037017 3.812733 8.398826 1.164911 0.211621 0.459232 0.082506 0.297506 0.803179 0.112279 3.265427 7.823774 1.417988 2.583417 16.017304 1.439921 2.385488 -8.889803 0.925591 8.911934 -0.901748 -3.065990 24.718993 -18.809898 -22.896978 -46.645648 -53.539789 92.705775 -1.536217 0.730560 6.271721 -5.861849 -2.631492 -5.035515 4.575393 -5.480159 8.435933 36.744231 -56.550064 -91.308445 -6.476556 -4.656540 -14.919859 -3.157844 -57.392124 8.068275 -26.860514 71.968669 -24.102564 0.717138 -6.317132 -4.536983 0.081994 -0.360666 0.331195 18.268518 -56.022865 -4.869387 27.544661 67.445683 26.940906 -15.262405 -17.332272 0.198954 0.176541 0.429814 -0.010089
-248.957682 60.672172 -80.279765 156.395679 -11.268796 4.036860 3.787804 8.415132 1.146425 0.198006 0.461811 0.073986 0.307296 0.801369 0.117436 3.241199 7.833034 1.397205 2.699007 15.910627 1.374891 2.521901 -9.000840 0.831163 8.933583 -0.954121 -3.088643 24.640960 -18.714559 -22.951758 -47.108062 -53.654337 93.259622 -1.537236 0.820236 5.963613 -5.791626 -2.720200 -4.968719 4.410311 -5.431207 8.472183 37.283569 -57.156020 -91.871907 -6.490155 -4.851744 -14.614845 -3.037711 -57.387218 8.024985 -26.843608 71.988684 -24.085276 0.681372 -6.354137 -4.555045 0.063421 -0.350931 0.329878 18.240675 -56.010207 -4.827863 27.583831 67.457367 26.979756 -15.283245 -17.318500 0.202748 0.199218 0.421918 0.000688
-248.961408 60.671842 -80.287103 156.374808 -11.254557 4.022376 3.747810 8.396013 1.143692 0.183143 0.461060 0.068830 0.354025 0.806345 0.125554 3.229455 7.835227 1.389206 2.758948 15.809151 1.295440 2.650998 -9.097030 0.727407 8.895623 -0.988549 -3.119407 24.522319 -18.645618 -22.985968 -47.585850 -53.843191 93.798031 -1.412682 0.913300 5.900590 -5.752480 -2.745323 -4.947372 4.233319 -5.439099 8.542681 37.675563 -57.657266 -92.259767 -6.400777 -5.029078 -14.162691 -2.973121 -57.406676 8.015894 -26.872525 71.992857 -24.098036 0.663073 -6.383988 -4.596355 0.065866 -0.345000 0.329392 18.203714 -56.031334 -4.784933 27.638727 67.461189 27.021929 -15.269970 -17.294735 0.216687 0.207969 0.413742 0.003717
-248.964610 60.672749 -80.297702 156.322835 -11.264246 4.004069 3.732882 8.397764 1.154773 0.181843 0.459760 0.068508 0.389024 0.814214 0.127935 3.152262 7.815202 1.375155 2.877814 15.731785 1.213844 2.770731 -9.179975 0.616917 8.907022 -0.994814 -3.138717 24.361803 -18.600141 -23.002004 -47.715764 -53.896513 93.995254 -1.095480 0.862566 6.093526 -5.682800 -2.871231 -4.854480 4.114528 -5.317790 8.553572 37.932747 -57.964915 -92.550356 -6.323166 -5.145647 -13.531346 -2.873312 -57.400056 8.002114 -26.903574 71.994864 -24.100549 0.646371 -6.407764 -4.629372 0.077122 -0.367381 0.263634 18.172862 -56.035511 -4.716215 27.703326 67.487406 27.090721 -15.256424 -17.282761 0.219550 0.207350 0.396917 0.007490
-248.967423 60.674167 -80.307835 156.267248 -11.280071 3.968825 3.721970 8.399839 1.185971 0.216637 0.468392 0.070901 0.296068 0.789084 0.119258 3.171192 7.806295 1.379389 2.984903 15.670317 1.122547 2.880955 -9.249254 0.501436 8.901752 -0.988361 -3.153151 24.167807 -18.573111 -22.995931 -47.577583 -53.925749 93.993780 -0.872972 0.777873 6.342358 -5.611038 -2.926228 -4.801256 3.990331 -5.254923 8.593811 38.184382 -58.155189 -92.817479 -6.273661 -5.222334 -12.863970 -2.778335 -57.387831 8.005817 -26.925713 71.996530 -24.100736 0.639597 -6.416528 -4.611971 0.060430 -0.371034 0.236084 18.140167 -56.037356 -4.632500 27.767328 67.512135 27.160234 -15.172689 -17.275311 0.218289 0.254887 0.385313 0.021674
-248.975591 60.675809 -80.316541 156.201690 -11.283357 3.948509 3.715686 8.383170 1.206133 0.197400 0.461481 0.069393 0.293005 0.783569 0.119619 3.173447 7.789754 1.386808 3.062858 15.618872 1.024487 2.985781 -9.301793 0.380785 8.870808 -0.980075 -3.160960 23.954588 -18.559464 -22.969748 -47.387099 -54.031363 93.999738 -0.849254 0.776114 6.527020 -5.556038 -2.943874 -4.772455 3.871188 -5.220673 8.653335 38.477855 -58.316878 -93.076146 -6.208674 -5.284445 -12.342947 -2.683318 -57.385341 8.009354 -26.918067 71.988371 -24.106531 0.663188 -6.417461 -4.562880 0.010861 -0.358540 0.220535 18.150514 -56.041587 -4.578106 27.810465 67.533563 27.203071 -15.102826 -17.272259 0.218986 0.299711 0.369458 0.033584
-248.987994 60.678043 -80.325720 156.139138 -11.288559 3.941280 3.697605 8.361372 1.214738 0.177099 0.451378 0.069109 0.308109 0.784164 0.120866 3.153965 7.762237 1.396807 3.137651 15.584483 0.920203 3.089002 -9.336130 0.254353 8.843236 -0.964353 -3.161887 23.742401 -18.554042 -22.934440 -47.204553 -54.140155 94.034588 -0.884571 0.823389 6.667380 -5.486117 -2.924149 -4.766426 3.761828 -5.207348 8.730800 38.746042 -58.444436 -93.323533 -6.127795 -5.330170 -12.013942 -2.578917 -57.377544 7.983062 -26.938165 71.976831 -24.110718 0.679928 -6.440778 -4.596722 -0.002393 -0.346145 0.226029 18.182897 -56.050160 -4.553424 27.904545 67.560133 27.294269 -15.089863 -17.236471 0.239767 0.285481 0.339847 0.042280
-249.003519 60.679907 -80.331129 156.116040 -11.276846 3.926404 3.636280 8.317195 1.222466 0.175033 0.447528 0.069638 0.304635 0.777612 0.121833 3.133458 7.731663 1.410117 3.208816 15.563420 0.810030 3.190048 -9.356226 0.122484 8.815412 -0.944661 -3.156242 23.554300 -18.553420 -22.900110 -47.020236 -54.188382 94.061768 -0.907363 0.844904 6.796847 -5.437018 -2.896445 -4.755336 3.707633 -5.195122 8.803826 38.950110 -58.494019 -93.587522 -6.058304 -5.333384 -11.817694 -2.536670 -57.387921 7.973851 -26.946440 71.964467 -24.110187 0.683796 -6.450318 -4.601055 -0.001628 -0.346231 0.203564 18.203376 -56.073317 -4.549273 27.932052 67.571699 27.332578 -15.123952 -17.190674 0.252444 0.272779 0.320851 0.056696
-249.017837 60.681830 -80.335057 156.088281 -11.268185 3.897351 3.601212 8.283838 1.248490 0.148831 0.436818 0.072112 0.301203 0.771568 0.123127 3.112589 7.703045 1.426215 3.275781 15.550172 0.692533 3.288495 -9.367950 -0.016269 8.792556 -0.926458 -3.148360 23.402911 -18.557613 -22.870837 -46.816628 -54.164105 94.056555 -0.870398 0.842590 6.912872 -5.410803 -2.871042 -4.740634 3.710665 -5.185585 8.876159 39.109945 -58.458469 -93.883752 -6.015805 -5.283872 -11.697779 -2.547200 -57.392905 8.021219 -26.934456 71.950794 -24.103165 0.678738 -6.447393 -4.607596 0.008232 -0.355502 0.184083 18.224416 -56.099109 -4.529920 27.945766 67.587587 27.365211 -15.158087 -17.150979 0.260095 0.274384 0.300803 0.071930
-249.032305 60.684207 -80.340141 156.028913 -11.271936 3.876245 3.640882 8.281441 1.279258 0.073899 0.412727 0.078376 0.297798 0.766528 0.124716 3.090084 7.679434 1.444515 3.339981 15.542542 0.567925 3.385823 -9.373543 -0.161980 8.779687 -0.913350 -3.142457 23.295817 -18.563147 -22.844741 -46.612330 -54.080435 94.025561 -0.833808 0.858884 7.000661 -5.374846 -2.832246 -4.749249 3.729350 -5.197959 8.975920 39.236306 -58.370073 -94.175663 -6.001163 -5.210168 -11.634932 -2.481826 -57.383101 8.020529 -26.915627 71.936030 -24.060321 0.679762 -6.451778 -4.614768 0.013012 -0.362055 0.148467 18.335508 -56.113008 -4.561445 27.965905 67.614572 27.435724 -15.197021 -17.108520 0.273970 0.245219 0.267509 0.077682
-249.045280 60.686220 -80.343074 155.973512 -11.275436 3.841951 3.528555 8.242543 1.313281 0.144603 0.431749 0.073982 0.294398 0.762642 0.126356 3.065034 7.662473 1.462682 3.401489 15.539393 0.440258 3.481211 -9.374324 -0.310385 8.772853 -0.908380 -3.138299 23.237487 -18.563167 -22.818085 -46.442131 -53.962591 93.983905 -0.844866 0.899662 6.974083 -5.342061 -2.795642 -4.763325 3.768024 -5.214515 9.090098 39.321743 -58.271776 -94.421904 -6.007940 -5.147014 -11.615596 -2.402925 -57.367810 7.999571 -26.881678 71.916380 -23.974108 0.703245 -6.464866 -4.618636 0.000061 -0.339087 0.136829 18.364383 -56.124020 -4.519437 27.988012 67.626893 27.465616 -15.183905 -17.080865 0.280274 0.262972 0.259314 0.093765
-249.057971 60.688043 -80.345506 155.881830 -11.281944 3.815436 3.500873 8.229560 1.351347 0.167142 0.437150 0.073096 0.291033 0.760090 0.127933 3.037952 7.653088 1.479615 3.460176 15.537367 0.312118 3.573861 -9.373840 -0.458710 8.771087 -0.914606 -3.137829 23.217609 -18.557722 -22.788290 -46.310260 -53.829578 93.934143 -0.815795 0.936285 6.911241 -5.313108 -2.768779 -4.780814 3.816702 -5.229113 9.213175 39.366616 -58.193539 -94.612306 -6.028913 -5.102697 -11.614720 -2.368770 -57.352424 8.062282 -26.867077 71.894429 -23.954521 0.698191 -6.455388 -4.624921 0.015626 -0.343962 0.120933 18.398906 -56.126994 -4.448263 28.012681 67.640896 27.478900 -15.177907 -17.060790 0.291335 0.260094 0.256954 0.104188
-249.075068 60.689221 -80.346272 155.838062 -11.278583 3.805098 3.446124 8.219928 1.365371 0.165220 0.436385 0.074053 0.287725 0.758782 0.129561 3.009469 7.650225 1.496110 3.548391 15.544022 0.223204 3.641374 -9.379932 -0.638271 8.776936 -0.927646 -3.144071 23.219478 -18.554006 -22.754670 -46.187514 -53.678713 93.868133 -0.778585 0.959585 6.827977 -5.287615 -2.759256 -4.804451 3.866663 -5.235541 9.340743 39.377991 -58.140772 -94.745276 -6.056123 -5.068213 -11.612611 -2.300780 -57.350260 8.034607 -26.828723 71.874667 -23.886295 0.703511 -6.499999 -4.626796 0.020038 -0.292073 0.101376 18.475850 -56.139629 -4.454628 28.036274 67.661725 27.500192 -15.243058 -16.982732 0.333537 0.148098 0.198444 0.082941
